#!OML:ASF G:\JayActor3\Patient Classification 1\Patient 1\Session 6\male.ASF
:FULLY-SPECIFIED
:DEGREES
1016
root 5.91483 16.4782 0.0118912 176.998 -43.1991 -176.803
lowerback -0.751883 -1.75282 3.88396
upperback 4.26244 -2.72244 2.06158
thorax 4.75558 -1.31618 -0.176349
lowerneck -11.0668 0.686729 1.07007
upperneck 32.5084 -0.524635 -2.57953
head 12.5986 -1.15391 -1.41176
rclavicle 2.96189e-014 -8.34896e-015
rhumerus -40.5112 24.0012 -94.6571
rradius 93.1747
rwrist -54.7769
rhand -19.018 -13.5826
rfingers 7.12502
rthumb 7.28775 -43.4371
lclavicle 2.96189e-014 -8.34896e-015
lhumerus -24.9644 -5.71169 86.4736
lradius 37.6229
lwrist 19.8037
lhand -16.7205 9.90677
lfingers 7.12502
lthumb 9.50507 39.6724
rfemur -13.1576 6.06183 22.9099
rtibia 35.3812
rfoot -21.1645 -7.06982
rtoes 2.75151
lfemur -2.77318 5.16292 -14.911
ltibia 21.6123
lfoot -17.5853 11.8661
ltoes -3.054
1017
root 5.90627 16.478 0.0209392 176.981 -43.1966 -176.776
lowerback -0.755528 -1.73586 3.83846
upperback 4.24839 -2.69436 2.03341
thorax 4.74399 -1.30272 -0.178716
lowerneck -11.0709 0.681026 1.07105
upperneck 32.503 -0.538354 -2.55645
head 12.597 -1.1563 -1.40472
rclavicle 5.58585e-014 -1.15295e-014
rhumerus -40.4865 24.0458 -94.6897
rradius 93.1529
rwrist -54.7944
rhand -19.0831 -13.5999
rfingers 7.12502
rthumb 7.22498 -43.4566
lclavicle 5.58585e-014 -1.15295e-014
lhumerus -25.004 -5.69111 86.5455
lradius 37.368
lwrist 19.7246
lhand -16.6969 9.88604
lfingers 7.12502
lthumb 9.52784 39.6506
rfemur -13.1672 6.10596 22.8905
rtibia 35.3861
rfoot -21.1645 -7.12236
rtoes 2.69733
lfemur -2.7761 5.1868 -14.9328
ltibia 21.6135
lfoot -17.6131 11.8381
ltoes -3.01849
1018
root 5.89799 16.4778 0.0298083 176.956 -43.1937 -176.725
lowerback -0.763893 -1.71728 3.80859
upperback 4.23267 -2.66524 2.01048
thorax 4.73302 -1.28832 -0.184463
lowerneck -11.0794 0.67402 1.07013
upperneck 32.4996 -0.553544 -2.533
head 12.5972 -1.15949 -1.39749
rclavicle 1.63003e-014 -1.82882e-014
rhumerus -40.4628 24.0821 -94.7213
rradius 93.134
rwrist -54.8012
rhand -19.1509 -13.6136
rfingers 7.12502
rthumb 7.15946 -43.4725
lclavicle 1.63003e-014 -1.82882e-014
lhumerus -25.0446 -5.64589 86.6134
lradius 37.0781
lwrist 19.626
lhand -16.6729 9.86558
lfingers 7.12502
lthumb 9.55095 39.6291
rfemur -13.1792 6.15335 22.8902
rtibia 35.3815
rfoot -21.159 -7.1813
rtoes 2.64146
lfemur -2.7959 5.21845 -14.9344
ltibia 21.6313
lfoot -17.6424 11.8024
ltoes -2.99215
1019
root 5.88976 16.4778 0.0384452 176.926 -43.1895 -176.666
lowerback -0.774762 -1.69707 3.78782
upperback 4.21591 -2.63443 1.98875
thorax 4.72216 -1.27278 -0.194001
lowerneck -11.0921 0.666783 1.07006
upperneck 32.4999 -0.569211 -2.51026
head 12.5997 -1.16295 -1.39091
rclavicle -7.01213e-014 2.78299e-014
rhumerus -40.4401 24.1099 -94.7535
rradius 93.1147
rwrist -54.799
rhand -19.2032 -13.6362
rfingers 7.12502
rthumb 7.10897 -43.4968
lclavicle -7.01213e-014 2.78299e-014
lhumerus -25.0838 -5.58671 86.6754
lradius 36.7505
lwrist 19.5217
lhand -16.6491 9.85232
lfingers 7.12502
lthumb 9.5739 39.6148
rfemur -13.1886 6.1993 22.8973
rtibia 35.3689
rfoot -21.1503 -7.23882
rtoes 2.58983
lfemur -2.82439 5.2547 -14.9276
ltibia 21.6608
lfoot -17.6728 11.7644
ltoes -2.97096
1020
root 5.88155 16.4778 0.0469032 176.891 -43.1884 -176.599
lowerback -0.781345 -1.67772 3.77172
upperback 4.19519 -2.60469 1.9705
thorax 4.70468 -1.2578 -0.202383
lowerneck -11.104 0.660145 1.0681
upperneck 32.5038 -0.58386 -2.48842
head 12.6036 -1.16651 -1.38431
rclavicle -8.77634e-014 1.59028e-015
rhumerus -40.4272 24.134 -94.7873
rradius 93.0974
rwrist -54.7899
rhand -19.2423 -13.6691
rfingers 7.12502
rthumb 7.07126 -43.531
lclavicle -8.77634e-014 1.59028e-015
lhumerus -25.1265 -5.49787 86.7333
lradius 36.3877
lwrist 19.4081
lhand -16.6092 9.86062
lfingers 7.12502
lthumb 9.61244 39.6213
rfemur -13.1933 6.23719 22.9098
rtibia 35.3493
rfoot -21.1376 -7.29242
rtoes 2.53312
lfemur -2.85871 5.29316 -14.914
ltibia 21.7001
lfoot -17.7036 11.7226
ltoes -2.94674
1021
root 5.87309 16.4779 0.0551395 176.86 -43.1881 -176.544
lowerback -0.785414 -1.65905 3.75144
upperback 4.17371 -2.57531 1.9495
thorax 4.68499 -1.2431 -0.211191
lowerneck -11.115 0.654905 1.06712
upperneck 32.508 -0.596438 -2.46773
head 12.6076 -1.16925 -1.37806
rclavicle 9.21367e-014 -3.29983e-014
rhumerus -40.4174 24.1566 -94.8231
rradius 93.0784
rwrist -54.7804
rhand -19.2705 -13.6985
rfingers 7.12502
rthumb 7.04402 -43.5613
lclavicle 9.21367e-014 -3.29983e-014
lhumerus -25.1708 -5.38474 86.7837
lradius 35.9907
lwrist 19.2911
lhand -16.5543 9.87662
lfingers 7.12502
lthumb 9.66537 39.6349
rfemur -13.191 6.26619 22.9119
rtibia 35.3284
rfoot -21.126 -7.33538
rtoes 2.47503
lfemur -2.88764 5.33117 -14.9102
ltibia 21.7384
lfoot -17.7316 11.6858
ltoes -2.93163
1022
root 5.86456 16.478 0.0632373 176.828 -43.1891 -176.489
lowerback -0.781149 -1.64312 3.7294
upperback 4.14677 -2.54882 1.9305
thorax 4.65491 -1.23012 -0.216707
lowerneck -11.1219 0.653157 1.06595
upperneck 32.5144 -0.603296 -2.45096
head 12.6116 -1.17026 -1.37257
rclavicle 2.71341e-014 1.23246e-014
rhumerus -40.4182 24.1843 -94.8604
rradius 93.0603
rwrist -54.7781
rhand -19.2766 -13.7327
rfingers 7.12502
rthumb 7.03812 -43.5956
lclavicle 2.71341e-014 1.23246e-014
lhumerus -25.2227 -5.23732 86.828
lradius 35.5597
lwrist 19.1598
lhand -16.4881 9.90563
lfingers 7.12502
lthumb 9.72928 39.6609
rfemur -13.1863 6.2868 22.9117
rtibia 35.3085
rfoot -21.1141 -7.36988
rtoes 2.40922
lfemur -2.91172 5.37146 -14.9071
ltibia 21.7713
lfoot -17.7565 11.647
ltoes -2.91826
1023
root 5.8557 16.478 0.0711444 176.809 -43.1908 -176.464
lowerback -0.775647 -1.62784 3.69173
upperback 4.1231 -2.52239 1.90494
thorax 4.62781 -1.21748 -0.220327
lowerneck -11.1277 0.65141 1.06269
upperneck 32.5178 -0.609408 -2.43367
head 12.6142 -1.17101 -1.3663
rclavicle -5.74488e-014 2.22639e-014
rhumerus -40.4162 24.21 -94.8977
rradius 93.0384
rwrist -54.7817
rhand -19.2769 -13.7588
rfingers 7.12502
rthumb 7.03783 -43.6218
lclavicle -5.74488e-014 2.22639e-014
lhumerus -25.2706 -5.0702 86.864
lradius 35.0919
lwrist 19.0202
lhand -16.4118 9.93852
lfingers 7.12502
lthumb 9.80286 39.6903
rfemur -13.1749 6.29482 22.8873
rtibia 35.2941
rfoot -21.1025 -7.39013
rtoes 2.33018
lfemur -2.91937 5.40353 -14.9277
ltibia 21.7926
lfoot -17.7833 11.6118
ltoes -2.87834
1024
root 5.84677 16.478 0.0789007 176.791 -43.1945 -176.446
lowerback -0.780042 -1.61202 3.65366
upperback 4.10938 -2.49633 1.87544
thorax 4.61661 -1.20472 -0.2283
lowerneck -11.1388 0.648091 1.06208
upperneck 32.5117 -0.615854 -2.41831
head 12.614 -1.17112 -1.36097
rclavicle -8.34399e-014 5.96354e-015
rhumerus -40.394 24.2332 -94.9288
rradius 93.0124
rwrist -54.7961
rhand -19.2934 -13.7978
rfingers 7.12502
rthumb 7.0219 -43.6613
lclavicle -8.34399e-014 5.96354e-015
lhumerus -25.2998 -4.88649 86.8879
lradius 34.5847
lwrist 18.863
lhand -16.3419 9.96097
lfingers 7.12502
lthumb 9.87032 39.7096
rfemur -13.1613 6.29909 22.8564
rtibia 35.2847
rfoot -21.0932 -7.40545
rtoes 2.25584
lfemur -2.91751 5.4328 -14.9544
ltibia 21.8038
lfoot -17.8074 11.577
ltoes -2.83101
1025
root 5.83774 16.4779 0.0866022 176.779 -43.1998 -176.444
lowerback -0.789011 -1.59519 3.61063
upperback 4.10525 -2.46933 1.83953
thorax 4.61797 -1.19135 -0.240401
lowerneck -11.1575 0.642403 1.06643
upperneck 32.4988 -0.62453 -2.40504
head 12.6124 -1.17124 -1.35741
rclavicle 8.41356e-014 -1.19271e-015
rhumerus -40.3553 24.2507 -94.9567
rradius 92.9828
rwrist -54.8177
rhand -19.323 -13.825
rfingers 7.12502
rthumb 6.99334 -43.6895
lclavicle 8.41356e-014 -1.19271e-015
lhumerus -25.3122 -4.69142 86.8992
lradius 34.0409
lwrist 18.6885
lhand -16.2821 9.97989
lfingers 7.12502
lthumb 9.92798 39.7258
rfemur -13.143 6.30056 22.813
rtibia 35.2798
rfoot -21.0858 -7.417
rtoes 2.18163
lfemur -2.90488 5.46231 -14.9936
ltibia 21.8072
lfoot -17.8266 11.5445
ltoes -2.79431
1026
root 5.82889 16.4778 0.0943171 176.765 -43.2076 -176.443
lowerback -0.799661 -1.57806 3.56894
upperback 4.10611 -2.44243 1.80227
thorax 4.62541 -1.17791 -0.254772
lowerneck -11.1771 0.634979 1.07353
upperneck 32.4771 -0.634296 -2.39367
head 12.6074 -1.17122 -1.35491
rclavicle -1.44616e-014 -7.55382e-015
rhumerus -40.3042 24.266 -94.9821
rradius 92.9511
rwrist -54.8468
rhand -19.3709 -13.8363
rfingers 7.12502
rthumb 6.94715 -43.7023
lclavicle -1.44616e-014 -7.55382e-015
lhumerus -25.3126 -4.48536 86.8992
lradius 33.4629
lwrist 18.4941
lhand -16.2288 9.99746
lfingers 7.12502
lthumb 9.97945 39.7409
rfemur -13.1234 6.3015 22.7692
rtibia 35.2754
rfoot -21.0808 -7.42599
rtoes 2.12898
lfemur -2.89187 5.489 -15.033
ltibia 21.8118
lfoot -17.8494 11.5085
ltoes -2.7356
1027
root 5.82031 16.4777 0.102052 176.742 -43.2191 -176.43
lowerback -0.806413 -1.56181 3.53737
upperback 4.10677 -2.41707 1.76664
thorax 4.63011 -1.16501 -0.273024
lowerneck -11.196 0.62681 1.08565
upperneck 32.4513 -0.644871 -2.38514
head 12.6004 -1.1711 -1.35434
rclavicle 6.68413e-014 8.74653e-015
rhumerus -40.2482 24.2784 -95.0088
rradius 92.9159
rwrist -54.877
rhand -19.4196 -13.849
rfingers 7.12502
rthumb 6.90014 -43.7165
lclavicle 6.68413e-014 8.74653e-015
lhumerus -25.3098 -4.27263 86.8884
lradius 32.8554
lwrist 18.2874
lhand -16.1872 10.0086
lfingers 7.12502
lthumb 10.0196 39.7501
rfemur -13.1034 6.30631 22.7365
rtibia 35.2706
rfoot -21.0792 -7.44166
rtoes 2.08929
lfemur -2.88128 5.51856 -15.0614
ltibia 21.8185
lfoot -17.8681 11.4684
ltoes -2.69615
